<svg xmlns="http://www.w3.org/2000/svg" width="87.002" height="67.001" viewBox="0 0 87.002 67.001"><defs><style>.a{fill:#710B41;stroke:rgba(0,0,0,0);stroke-miterlimit:10;}</style></defs><g transform="translate(0.502 0.5)"><path class="a" d="M16653,10975v-6.659h6.154V10975Zm.084-10.18v-54.058h6.256v19.077h4.684v-19.077h6.26v42.959h-6.213v-18.61h-4.773v29.709Zm66.547-5.961q-1.878-2.06-1.873-6.385V10950h5.045v4.365q0,1.67.912,1.672.794,0,.795-1.562v-5.521h-3.2q-3.557,0-3.551-6.507v-18.476h5.223v18.244c0,1.168.271,1.748.822,1.748q.738,0,.736-1.781v-18.211h5.225v24.982h-.033v3.55q0,4.311-2,6.364a5.531,5.531,0,0,1-4.166,1.673A5.043,5.043,0,0,1,16719.629,10958.86Zm14.373-9.679v-6.39h5v6.39Zm-31.016-.231v-24.982h6.166a5.535,5.535,0,0,1,4.168,1.68q2,2.067,1.994,6.4v4.445h-5.225v-5.9c0-1.071-.311-1.6-.937-1.6s-.941.537-.941,1.608v18.35Zm-14.768,0v-24.982h6.168a5.528,5.528,0,0,1,4.166,1.68q2,2.067,2,6.4v4.445h-5.227v-5.9c0-1.071-.311-1.6-.936-1.6s-.941.537-.941,1.608v18.35Zm-10.893-.033q-3.548,0-3.549-6.49V10924H16679v18.212c0,1.163.273,1.747.824,1.747.486,0,.73-.6.73-1.785V10924h5.23v24.912ZM16734,10909h5v31.1l-5,.037Z" transform="translate(-16653 -10909)"/></g></svg>